HIERARCHY
ROOT ui
{
	 OFFSET 0 0 0
	 CHANNELS 3 XPosition YPosition Z Position
	 EndSite
	 {
	 OFFSET 0 -1 0
	 }
}
ROOT li
{
	 OFFSET 0 0 0
	 CHANNELS 3 XPosition YPosition Z Position
	 EndSite
	 {
	 OFFSET 0 -1 0
	 }
}
ROOT ul
{
	 OFFSET 0 0 0
	 CHANNELS 3 XPosition YPosition Z Position
	 EndSite
	 {
	 OFFSET 0 -1 0
	 }
}
ROOT ll
{
	 OFFSET 0 0 0
	 CHANNELS 3 XPosition YPosition Z Position
	 EndSite
	 {
	 OFFSET 0 -1 0
	 }
}
ROOT tt
{
	 OFFSET 0 0 0
	 CHANNELS 3 XPosition YPosition Z Position
	 EndSite
	 {
	 OFFSET 0 -1 0
	 }
}
ROOT tb
{
	 OFFSET 0 0 0
	 CHANNELS 3 XPosition YPosition Z Position
	 EndSite
	 {
	 OFFSET 0 -1 0
	 }
}
ROOT td
{
	 OFFSET 0 0 0
	 CHANNELS 3 XPosition YPosition Z Position
	 EndSite
	 {
	 OFFSET 0 -1 0
	 }
}
ROOT v
{
	 OFFSET 0 0 0
	 CHANNELS 3 XPosition YPosition Z Position
	 EndSite
	 {
	 OFFSET 0 -1 0
	 }
}
ROOT bn
{
	 OFFSET 0 0 0
	 CHANNELS 3 XPosition YPosition Z Position
	 EndSite
	 {
	 OFFSET 0 -1 0
	 }
}
MOTION
Frames: 32
Frame Time: 0.002
1.581300050020218E-5	-1.118530035018921E-4	0		0.4212137451171875	-2.3719013671875	0		-1.1529451904296875	-0.03732795715332031	0		-0.887937255859375	-2.31601171875	0		1.4930474853515625	-0.5697366943359375	0		3.101279541015625	-0.01741950225830078	0		4.48050439453125	-0.019683786392211914	0		5.563724609375	0.08192350006103516	0		-0.14308763122558593	5.91487255859375	0		
-0.07046270751953125	0.0021793129444122312	0		0.3925400390625	-2.361298095703125	0		-1.1153756103515624	-0.034452968597412106	0		-0.8428739624023438	-2.319200927734375	0		1.499687744140625	-0.569545654296875	0		3.133903076171875	-0.010304753303527831	0		4.48288037109375	-0.024611085891723634	0		5.5643857421875	0.09332314300537109	0		-0.27257327270507814	5.89624072265625	0		
0.007960552215576172	0.0035714950561523437	0		0.42443878173828126	-2.36588232421875	0		-1.112044677734375	-0.03788226699829102	0		-0.8488056640625	-2.31436962890625	0		1.506212158203125	-0.56936767578125	0		3.114155029296875	-0.016209264755249024	0		4.48926611328125	-0.02367394256591797	0		5.5765478515625	0.08442190551757812	0		-0.13527622985839843	5.9164228515625	0		
-0.057887844085693356	0.0017473479509353637	0		0.42914019775390627	-2.36893798828125	0		-1.105839111328125	-0.038341346740722655	0		-0.8461350708007812	-2.318689453125	0		1.50946826171875	-0.5731474609375	0		3.1154892578125	-0.008571314811706542	0		4.48347021484375	-0.022575239181518554	0		5.57274462890625	0.0867405242919922	0		-0.2628975830078125	5.895708984375	0		
-0.05907181930541992	-0.005317241191864014	0		0.3837635498046875	-2.36005322265625	0		-1.1250675048828125	-0.048295982360839845	0		-0.864734130859375	-2.321588623046875	0		1.5186146240234375	-0.5690596923828125	0		3.13002294921875	-0.030241104125976564	0		4.487384765625	-0.02374323844909668	0		5.58865185546875	0.08658467864990234	0		-0.24209046936035156	5.90316455078125	0		
-0.04324607849121094	0.004310646057128906	0		0.42973501586914065	-2.367892333984375	0		-1.11534375	-0.044766902923583984	0		-0.8145664672851562	-2.31875146484375	0		1.5274417724609375	-0.5649877319335938	0		3.145411376953125	0.01003260040283203	0		4.5153046875	-0.008437722206115723	0		5.59842333984375	0.09544441986083985	0		-0.09003249359130859	5.933205078125	0		
-0.041011245727539065	0.001199455976486206	0		0.42455984497070315	-2.3617734375	0		-1.122859130859375	-0.03488732147216797	0		-0.8108992309570312	-2.321018798828125	0		1.532832763671875	-0.5648746337890626	0		3.122244384765625	-0.01404603099822998	0		4.5075068359375	-0.012551684379577637	0		5.5995498046875	0.08835836791992188	0		-0.23532713317871093	5.9057783203125	0		
-0.03610347747802734	0.0010486639738082886	0		0.4547659606933594	-2.366305908203125	0		-1.0840242919921874	-0.03983000183105469	0		-0.8185289306640625	-2.316055419921875	0		1.534758056640625	-0.5687198486328126	0		3.137280517578125	-0.006877793788909912	0		4.51241650390625	-0.01197959041595459	0		5.598626953125	0.0992118682861328	0		-0.12637525939941407	5.9036796875	0		
-0.04058023452758789	0.002078136920928955	0		0.4057021179199219	-2.360392822265625	0		-1.117508544921875	-0.03942253875732422	0		-0.8157351684570312	-2.31826220703125	0		1.539341796875	-0.5686322021484375	0		3.14665771484375	-0.01365408706665039	0		4.5217763671875	-0.01956223487854004	0		5.60380859375	0.0828559799194336	0		-0.10752345275878906	5.91326025390625	0		
-0.03158372688293457	-0.003127619981765747	0		0.47078436279296876	-2.377548828125	0		-1.10059814453125	-0.04990480422973633	0		-0.8015059814453125	-2.326653564453125	0		1.543499755859375	-0.5685531005859376	0		3.15112451171875	0.007620725154876709	0		4.5179755859375	-0.01297073745727539	0		5.617154296875	0.09827425384521485	0		-0.07577723693847656	5.93462841796875	0		
-0.028771909713745117	0.004791257858276367	0		0.4160415954589844	-2.3585400390625	0		-1.0928536376953124	-0.04619054794311524	0		-0.7924969482421875	-2.3219248046875	0		1.5503006591796875	-0.564534423828125	0		3.15441650390625	-0.013128706932067871	0		4.53364306640625	-0.012789956092834473	0		5.61666943359375	0.09086152648925781	0		-0.08694658660888673	5.92377783203125	0		
-0.025518013000488282	0.00471193790435791	0		0.473419921875	-2.364537353515625	0		-1.0585286865234376	-0.04292180633544922	0		-0.7998804931640625	-2.313881591796875	0		1.5536080322265624	-0.5644654541015625	0		3.17188330078125	-0.0011600290536880494	0		4.524900390625	-0.01222741413116455	0		5.61991552734375	0.09131232452392578	0		-0.08424849700927735	5.92369287109375	0		
-0.0177370662689209	5.628700256347656E-4	0		0.447467041015625	-2.364044921875	0		-1.06563525390625	-0.040889060974121094	0		-0.800929931640625	-2.31893310546875	0		1.5534359130859374	-0.5683462524414062	0		3.160526123046875	-0.012714995384216308	0		4.52905517578125	0.005055985927581787	0		5.62276123046875	0.09170391845703126	0		-0.21622146606445314	5.9050029296875	0		
0.05457987976074219	-0.008714187622070312	0		0.4750029907226562	-2.369497314453125	0		-1.06316357421875	-0.04100312042236328	0		-0.80033984375	-2.320993896484375	0		1.555943115234375	-0.5682840576171875	0		3.14314013671875	-0.004193190097808838	0		4.53022412109375	-0.011661393165588379	0		5.6152431640625	0.09321607208251953	0		-0.0798001708984375	5.9235791015625	0		
-0.013165127754211426	4.92237001657486E-4	0		0.4352261962890625	-2.369758544921875	0		-1.0821605224609374	-0.046718067169189456	0		-0.7862156372070312	-2.3272744140625	0		1.55807763671875	-0.56822412109375	0		3.1590830078125	-0.013290047645568848	0		4.52134716796875	-0.01024334716796875	0		5.6314619140625	0.10025370788574219	0		-0.19425360107421874	5.91159033203125	0		
-0.011412748336791992	4.8162999749183655E-4	0		0.4650806579589844	-2.370240234375	0		-1.080406005859375	-0.046776657104492185	0		-0.8151961059570313	-2.317777587890625	0		1.525018798828125	-0.5585516967773437	0		3.168378662109375	0.017714189529418944	0		4.538203125	-0.004314432144165039	0		5.63320947265625	0.1004964599609375	0		-0.06138329315185547	5.9322705078125	0		
-0.006944652080535889	0.0034349451065063476	0		0.4597752990722656	-2.359095947265625	0		-1.042011474609375	-0.048456153869628905	0		-0.7886307983398437	-2.31423828125	0		1.5643614501953125	-0.5641546630859375	0		3.153271484375	-0.011880893707275391	0		4.54163623046875	-0.003180213928222656	0		5.620501953125	0.09395121002197265	0		-0.07533511352539063	5.9235390625	0		
-0.008901094436645508	5.113819837570191E-4	0		0.48381149291992187	-2.366460205078125	0		-1.094783935546875	-0.04051916122436523	0		-0.7915568237304688	-2.319166015625	0		1.562403564453125	-0.5680338745117187	0		3.1525947265625	0.0012645859718322754	0		4.53175146484375	-0.0018365449905395508	0		5.63157568359375	0.09295858001708984	0		-0.07342387390136719	5.92254296875	0		
-0.008107772827148437	5.51950991153717E-4	0		0.4826036376953125	-2.36937353515625	0		-1.0559954833984375	-0.041165172576904295	0		-0.7927481689453125	-2.32110693359375	0		1.5632091064453124	-0.5679595336914063	0		3.17015869140625	-0.011921586990356446	0		4.54528076171875	-0.016922943115234373	0		5.6323671875	0.09312043762207031	0		-0.2071214599609375	5.90292431640625	0		
-0.016577558517456056	0.001766010046005249	0		0.4312999572753906	-2.360403076171875	0		-1.0765848388671875	-0.046757377624511716	0		-0.825072998046875	-2.31348779296875	0		1.5637294921875	-0.5678773803710937	0		3.175123046875	0.014112274169921874	0		4.5378984375	-0.010655028343200684	0		5.632876953125	0.0932669677734375	0		-0.058167953491210934	5.93239306640625	0		
-0.007343913078308105	6.825580000877381E-4	0		0.4605569763183594	-2.361830078125	0		-1.03935498046875	-0.04834061813354492	0		-0.774941650390625	-2.322293701171875	0		1.5670576171875	-0.56383935546875	0		3.160029052734375	-0.00551439094543457	0		4.52844873046875	0.006640783786773682	0		5.63726708984375	0.10133241271972657	0		-0.057981788635253904	5.9324658203125	0		
-0.007324680805206298	7.710570096969605E-4	0		0.46059365844726563	-2.361738037109375	0		-1.076312255859375	-0.04661538314819336	0		-0.7857642822265625	-2.3140205078125	0		1.5670809326171875	-0.5637392578125	0		3.188462158203125	0.018106111526489256	0		4.55016845703125	-0.010617877006530762	0		5.63314697265625	0.0935334701538086	0		-0.05800634384155273	5.9325537109375	0		
-0.012440000534057617	0.004959996223449707	0		0.4853438110351562	-2.366068603515625	0		-1.0075780029296875	-0.05171817398071289	0		-0.79002734375	-2.3188505859375	0		1.5638282470703124	-0.5675776977539062	0		3.1539853515625	0.001815911054611206	0		4.5282822265625	0.006883169174194336	0		5.6329609375	0.09365824127197266	0		-0.059180553436279294	5.93467333984375	0		
-0.011939558982849121	-0.0029413599967956544	0		0.45598907470703126	-2.365448486328125	0		-1.0937508544921875	-0.04010758590698242	0		-0.7924209594726562	-2.320700927734375	0		1.5634683837890626	-0.5674622192382812	0		3.148748046875	0.009018050193786622	0		4.527921875	0.006999853134155273	0		5.6326005859375	0.09377537536621093	0		-0.20613041687011718	5.9023359375	0		
-0.012440693855285645	-0.002816004991531372	0		0.4912829284667969	-2.376949951171875	0		-1.044433837890625	-0.05084797668457031	0		-0.78307080078125	-2.32874609375	0		1.56296533203125	-0.5673421630859375	0		3.176928955078125	-0.009369624137878419	0		4.518248046875	-0.002731790065765381	0		5.61724169921875	0.10214179229736328	0		-0.19043992614746094	5.912181640625	0		
-0.0059257659912109375	0.004194997787475586	0		0.441842041015625	-2.36596728515625	0		-1.0779654541015624	-0.046132305145263675	0		-0.7745375366210937	-2.3197646484375	0		1.5684764404296876	-0.5603247680664063	0		3.170811767578125	0.018842432022094728	0		4.53577880859375	0.005055729866027832	0		5.63563330078125	0.1019054183959961	0		-0.05864127349853516	5.932013671875	0		
0.06732011413574218	-9.536420106887818E-4	0		0.4851905517578125	-2.363598388671875	0		-1.0475740966796876	-0.04252161407470703	0		-0.7881276245117188	-2.313390380859375	0		1.564745849609375	-0.5631469116210938	0		3.155931640625	0.00719719123840332	0		4.53024609375	0.013236735343933105	0		5.62084130859375	0.09523450469970703	0		-0.07440912628173828	5.92341796875	0		
-0.010356019973754883	0.0015348320007324218	0		0.42646380615234375	-2.362446533203125	0		-1.079344970703125	-0.0458206901550293	0		-0.7929491577148438	-2.31816357421875	0		1.5609639892578124	-0.5669680786132812	0		3.17122412109375	0.007023552894592285	0		4.54127734375	-0.0018824490308761597	0		5.6301181640625	0.09413410186767578	0		-0.07503845977783204	5.92356494140625	0		
0.06283699417114258	-0.004607429981231689	0		0.47962332153320314	-2.368246337890625	0		-1.0471290283203125	-0.05023058319091797	0		-0.79572802734375	-2.319967041015625	0		1.560246826171875	-0.5668430786132812	0		3.159395263671875	3.168179988861084E-4	0		4.51273046875	0.0076840810775756834	0		5.61943017578125	0.09537068176269531	0		-0.19384689331054689	5.91377783203125	0		
-0.01887499237060547	-0.005041814804077148	0		0.4348455505371094	-2.3703349609375	0		-1.0807442626953125	-0.04548495864868164	0		-0.7866005859375	-2.327975830078125	0		1.5595472412109375	-0.5667207641601563	0		3.154196044921875	0.028493364334106444	0		4.5281435546875	0.01347244930267334	0		5.6287236328125	0.09424503326416016	0		-0.1934470977783203	5.9129140625	0		
0.06456288146972657	-3.618159890174866E-4	0		0.4890824584960938	-2.3741552734375	0		-1.0813994140625	-0.04531240081787109	0		-0.82017431640625	-2.320232666015625	0		1.5209749755859374	-0.5609373779296875	0		3.147158447265625	0.006688563823699951	0		4.5323486328125	0.005445169925689697	0		5.6280712890625	0.09428175354003906	0		-0.0625990867614746	5.9337724609375	0		
-0.017945648193359375	0.0062234091758728025	0		0.45465521240234374	-2.360421630859375	0		-1.082009033203125	-0.04513845062255859	0		-0.7937499389648438	-2.315538330078125	0		1.5613302001953124	-0.5625382080078125	0		3.182772216796875	0.019137882232666017	0		4.52277685546875	0.007654661178588867	0		5.62746484375	0.09431005859375	0		-0.0620966796875	5.9329072265625	0		
